<?xml version="1.0" encoding="UTF-8" standalone="no"?>
<!-- Generator: Adobe Illustrator 26.3.1, SVG Export Plug-In . SVG Version: 6.00 Build 0)  -->

<svg
   version="1.1"
   id="Layer_1"
   x="0px"
   y="0px"
   viewBox="304 182 184.10001 241"
   xml:space="preserve"
   width="184.10001"
   height="241"
   xmlns:xlink="http://www.w3.org/1999/xlink"
   xmlns="http://www.w3.org/2000/svg"
   xmlns:svg="http://www.w3.org/2000/svg"><defs
   id="defs52"><defs
     id="defs26">
					<polygon
   id="SVGID_1_"
   points="525.1,382.9 609.3,467.1 615,467.1 699.2,382.9 699.2,241.1 694.2,236.1 530.1,236.1 525.1,241.1 " />
				</defs><clipPath
     id="SVGID_00000173843457940388912920000018394100268043565994_">
					<use
   xlink:href="#SVGID_1_"
   style="overflow:visible"
   id="use26" />
				</clipPath><linearGradient
     id="SVGID_00000090991443493722042560000013974274366059565707_"
     gradientUnits="userSpaceOnUse"
     x1="612.18518"
     y1="273.41"
     x2="612.18518"
     y2="428.70999">
					<stop
   offset="0"
   style="stop-color:#35266B"
   id="stop26" />
					<stop
   offset="0.16"
   style="stop-color:#4C2677"
   id="stop27" />
					<stop
   offset="0.4"
   style="stop-color:#632683"
   id="stop28" />
					<stop
   offset="0.76"
   style="stop-color:#A1215A"
   id="stop29" />
					<stop
   offset="1"
   style="stop-color:#D60B24"
   id="stop30" />
				</linearGradient></defs>
<style
   type="text/css"
   id="style1">
	.st0{fill-rule:evenodd;clip-rule:evenodd;fill:#1A2044;}
	.st1{fill:none;stroke:#1A2044;stroke-width:0.7498;stroke-miterlimit:2.6131;}
	
		.st2{clip-path:url(#SVGID_00000043445133014546951910000004515335761621623186_);fill:url(#SVGID_00000168092160217981018660000003269117242008424114_);}
	.st3{fill:#B1B0B2;}
	.st4{fill:#FFFFFF;}
</style>
<g
   id="g52"
   transform="translate(-215.73261,-48.796663)"><g
     id="g1628"><rect
     x="525.09998"
     y="236.10001"
     style="fill:url(#SVGID_00000090991443493722042560000013974274366059565707_)"
     width="174.10001"
     height="231"
     clip-path="url(#SVGID_00000173843457940388912920000018394100268043565994_)"
     id="rect30" /><path
     class="st3"
     d="M 526.9,382.1 V 241.8 l 4,-4 h 162.6 l 4,4 v 140.3 l -83.2,83.2 H 610 Z m 2.1,-148.7 -6.6,6.6 v 144 l 85.8,85.8 h 7.9 L 701.9,384 V 240 l -6.6,-6.6 z"
     id="path30" /><path
     class="st4"
     d="m 612.1,408 c 3,0 5.9,0.7 8.5,2 l -0.7,2.4 -7.8,2.3 -7.4,-2.2 -0.6,-2.9 c 2.3,-1 5.5,-1.6 8,-1.6 m -14.2,6.4 3.1,0.9 -0.2,7.6 -4.3,6.3 -3.2,-1.1 c 0,-0.4 0,-0.8 0,-1.2 -0.1,-4.6 1.5,-9 4.6,-12.5 z m 14.2,4.5 7.3,5.3 -2.8,8.6 h -9 l -2.8,-8.6 z m -14.2,14.8 7.2,2.5 4.7,6.1 -2.2,2.9 c -2.4,-0.6 -4.7,-1.7 -6.7,-3.2 -2,-1.5 -3.7,-3.3 -4.9,-5.4 z m 28.6,-19.3 c 3,3.5 4.7,7.9 4.7,12.5 0,0.4 0,0.8 0,1.2 l -3.2,1.1 -4.3,-6.3 -0.2,-7.6 z m 0,19.3 2,3 c -1.3,2.1 -3,4 -4.9,5.4 -2,1.5 -4.3,2.6 -6.7,3.2 l -2.3,-2.9 4.7,-6.1 z"
     id="path31" /><path
     class="st4"
     d="m 555.6,289.8 c -7.1,0 -12.9,-5.8 -12.9,-12.9 v -23.3 h 4.4 v 23.3 c 0,4.7 3.8,8.5 8.5,8.5 4.7,0 8.5,-3.8 8.5,-8.5 v -23.2 h 4.4 v 23.2 c 0.1,7.1 -5.7,12.9 -12.9,12.9"
     id="path32" /><polygon
     class="st4"
     points="681.7,288.5 669.2,253.6 661.7,253.6 649.2,288.5 653.9,288.5 664.8,258 666.1,258 677,288.5 "
     id="polygon32" /><polygon
     class="st4"
     points="612.1,288.5 599.6,253.6 592,253.6 579.6,288.5 584.3,288.5 595.2,258 596.5,258 607.4,288.5 "
     id="polygon33" /><polygon
     class="st4"
     points="628.4,258.1 644,258.1 645.5,253.7 624,253.7 624,288.5 628.4,288.5 628.4,272.3 639.1,272.3 640.6,267.9 628.4,267.9 "
     id="polygon34" /><rect
     x="542.70001"
     y="299.79999"
     class="st3"
     width="139"
     height="4.5999999"
     id="rect34" /><rect
     x="127.08456"
     y="626.2254"
     transform="rotate(-45.040515)"
     class="st4"
     width="50.999523"
     height="4.3999591"
     id="rect35"
     style="stroke-width:0.999991" /><rect
     x="127.17247"
     y="635.26056"
     transform="rotate(-45.040515)"
     class="st4"
     width="59.799442"
     height="4.3999591"
     id="rect36"
     style="stroke-width:0.999991" /><rect
     x="127.12547"
     y="644.29828"
     transform="rotate(-45.040515)"
     class="st4"
     width="16.499846"
     height="4.3999591"
     id="rect37"
     style="stroke-width:0.999991" /><polygon
     class="st4"
     points="597.7,319.7 567.2,350.1 564.1,347 594.5,316.6 "
     id="polygon37" /><rect
     x="153.4939"
     y="653.31415"
     transform="rotate(-45)"
     class="st4"
     width="52.899494"
     height="4.3999581"
     id="rect38"
     style="stroke-width:0.99999" /><rect
     x="152.83469"
     y="662.4552"
     transform="rotate(-45.05672)"
     class="st4"
     width="52.099525"
     height="4.39996"
     id="rect39"
     style="stroke-width:0.999991" /><rect
     x="175.95554"
     y="671.38068"
     transform="rotate(-45)"
     class="st4"
     width="29.499718"
     height="4.3999581"
     id="rect40"
     style="stroke-width:0.99999" /><polygon
     class="st4"
     points="653.2,315.3 608.7,359.8 605.6,356.7 650.1,312.2 "
     id="polygon40" /><rect
     x="175.3629"
     y="689.65503"
     transform="rotate(-45.05672)"
     class="st4"
     width="62.899429"
     height="4.39996"
     id="rect41"
     style="stroke-width:0.999991" /><rect
     x="165.96989"
     y="698.5647"
     transform="rotate(-45)"
     class="st4"
     width="39.499622"
     height="4.3999581"
     id="rect42"
     style="stroke-width:0.99999" /><rect
     x="212.68764"
     y="698.73175"
     transform="rotate(-45.040515)"
     class="st4"
     width="25.69976"
     height="4.3999591"
     id="rect43"
     style="stroke-width:0.999991" /><rect
     x="212.55373"
     y="707.86389"
     transform="rotate(-45.048618)"
     class="st4"
     width="25.699764"
     height="4.3999596"
     id="rect44"
     style="stroke-width:0.999991" /><rect
     x="165.46779"
     y="707.76147"
     transform="rotate(-45.040515)"
     class="st4"
     width="39.49963"
     height="4.3999591"
     id="rect45"
     style="stroke-width:0.999991" /><rect
     x="213.15741"
     y="716.67816"
     transform="rotate(-45)"
     class="st4"
     width="34.399673"
     height="4.3999581"
     id="rect46"
     style="stroke-width:0.99999" /><rect
     x="165.45474"
     y="716.81738"
     transform="rotate(-45.040515)"
     class="st4"
     width="39.49963"
     height="4.3999591"
     id="rect47"
     style="stroke-width:0.999991" /><rect
     x="201.83101"
     y="734.80072"
     transform="rotate(-45)"
     class="st4"
     width="11.39989"
     height="4.3999581"
     id="rect48"
     style="stroke-width:0.99999" /><rect
     x="181.96637"
     y="743.84882"
     transform="rotate(-45)"
     class="st4"
     width="35.799656"
     height="4.3999581"
     id="rect49"
     style="stroke-width:0.99999" /><rect
     x="165.33363"
     y="725.90051"
     transform="rotate(-45.052665)"
     class="st4"
     width="14.900917"
     height="4.4002709"
     id="rect50"
     style="stroke-width:1.00006" /><rect
     x="213.17007"
     y="725.6969"
     transform="rotate(-45)"
     class="st4"
     width="34.399673"
     height="4.3999581"
     id="rect51"
     style="stroke-width:0.99999" /></g></g>
</svg>
